<svg width="1316" height="506" viewBox="0 0 1316 506" fill="none" xmlns="http://www.w3.org/2000/svg">
<path d="M1222.54 506C1290.92 461.752 1379.85 343.514 1248.34 211.826C1106.25 69.5065 611.754 -24.7452 287.699 73.3263C-36.3573 171.398 30.099 429.698 74.7033 506H1222.54Z" fill="#EEF7FF"/>
<g opacity="0.7">
<path d="M306.306 270.478H281.128V520.445H306.306V270.478Z" fill="#212353"/>
<path d="M224.578 174.836C209.406 174.836 197.114 187.118 197.114 202.275V270.478H224.578H366.074V174.836H224.578Z" fill="#F05757"/>
<path d="M393.538 270.478H338.61V202.275C338.61 187.118 350.903 174.836 366.074 174.836C381.246 174.836 393.538 187.118 393.538 202.275V270.478Z" fill="#EE3A4C"/>
<path d="M398.999 270.478H344.072V202.275C344.072 187.118 356.364 174.836 371.536 174.836C386.707 174.836 398.999 187.118 398.999 202.275V270.478Z" fill="#D2373A"/>
<path d="M338.61 270.478H197.114V277.33H338.61V270.478Z" fill="#EE3A4C"/>
<path d="M393.538 270.478H338.611V277.33H393.538V270.478Z" fill="#D2373A"/>
<path d="M310.893 229.08C316.793 229.08 321.576 224.301 321.576 218.406C321.576 212.511 316.793 207.732 310.893 207.732C304.992 207.732 300.209 212.511 300.209 218.406C300.209 224.301 304.992 229.08 310.893 229.08Z" fill="#F58A28"/>
<path d="M317.639 164.29C317.639 161.272 315.197 158.833 312.177 158.833H291.699C288.679 158.833 286.237 161.272 286.237 164.29V172.933C286.237 175.95 288.679 178.39 291.699 178.39H304.147V218.406C304.147 222.128 307.167 225.146 310.893 225.146C314.618 225.146 317.639 222.128 317.639 218.406V164.29Z" fill="#FAB217"/>
<path d="M250.014 143.354L171.752 192.792L203.301 242.643L281.562 193.205L250.014 143.354Z" fill="white"/>
<path d="M171.756 192.794L229.309 198.294L250.026 143.374L171.756 192.794Z" fill="#DDE7FF"/>
<path d="M171.756 192.794L226.669 193.006L250.026 143.374L171.756 192.794Z" fill="white"/>
<path d="M188.141 218.695C187.125 219.302 186.137 219.936 185.163 220.585" stroke="#4B57B5" stroke-width="1.6695" stroke-linecap="round" stroke-linejoin="round"/>
<path d="M172.49 230.553C162.597 239.507 153.889 249.983 144.772 259.811" stroke="#4B57B5" stroke-width="1.6695" stroke-linecap="round" stroke-linejoin="round" stroke-dasharray="5.72 5.72"/>
<path d="M139.211 265.649C119.749 285.417 97.1968 300.448 57.3277 290.944C39.4889 286.686 25.136 281.892 12.646 277.676" stroke="#4B57B5" stroke-width="1.6695" stroke-linecap="round" stroke-linejoin="round" stroke-dasharray="5.72 5.72"/>
<path d="M4.99707 275.124C3.86803 274.743 2.75311 274.377 1.63818 274.024" stroke="#4B57B5" stroke-width="1.6695" stroke-linecap="round" stroke-linejoin="round"/>
</g>
</svg>
