<svg width="50" height="50" viewBox="0 0 50 50" fill="none" xmlns="http://www.w3.org/2000/svg">
<path d="M48.8386 11.6486L48.6909 11.4616L48.6122 11.5206C48.2972 11.373 47.9528 11.2844 47.5787 11.2844H10.4823C10.1083 11.2844 9.76378 11.373 9.44882 11.5206L9.37008 11.4616L9.22244 11.6486C8.53346 12.0718 8.06102 12.8297 8.06102 13.7057V17.7411H5.64961V19.3553H8.07087V23.3907H4.03543V24.9951H8.07087V29.0305H2.42126V30.6447H8.07087V34.6801H0V36.2943H8.06102C8.06102 37.1703 8.53346 37.9281 9.22244 38.3514L9.37008 38.5384L9.44882 38.4793C9.76378 38.6269 10.1083 38.7155 10.4823 38.7155H47.5787C47.9528 38.7155 48.2972 38.6269 48.6122 38.4793L48.6909 38.5384L48.8386 38.3514C49.5276 37.9281 50 37.1703 50 36.2943V13.7057C50 12.8297 49.5276 12.0718 48.8386 11.6486ZM46.8898 12.8986L29.0354 27.1899L11.1713 12.8986H46.8898ZM9.6752 36.2155V13.7746L23.7106 24.9951L9.6752 36.2155ZM11.1713 37.0915L25 26.0285L29.0354 29.2569L33.0709 26.0285L46.8996 37.0915H11.1713ZM48.3957 36.2155L34.3602 24.9951L48.3957 13.7746V36.2155Z" fill="#011D58"/>
<path d="M31.5256 22.1112C32.0473 21.8159 32.441 21.4222 32.687 20.9104H31.8799C31.6142 21.2451 31.2599 21.501 30.8268 21.6683C30.3937 21.8356 29.8721 21.9242 29.2717 21.9242C28.6417 21.9242 28.0906 21.8258 27.5984 21.6191C27.1161 21.4222 26.7323 21.0974 26.4665 20.6644C26.2008 20.2313 26.063 19.7392 26.063 19.2077C26.063 18.6565 26.1811 18.1348 26.4272 17.623C26.6732 17.1211 27.0276 16.7273 27.5 16.4419C27.9724 16.1663 28.5532 16.0187 29.2421 16.0187C30.0492 16.0187 30.6791 16.2254 31.1221 16.6486C31.5748 17.062 31.8012 17.5836 31.8012 18.2136C31.8012 18.5581 31.7225 18.8927 31.565 19.2175C31.4075 19.5423 31.2008 19.7982 30.935 19.9951C30.7382 20.1427 30.5906 20.2116 30.4626 20.2116C30.4232 20.2116 30.3839 20.1919 30.3543 20.1624C30.3248 20.1329 30.315 20.0836 30.315 20.0246C30.315 19.9754 30.3347 19.8671 30.3642 19.6899L30.935 16.9734H29.9311L29.8327 17.3966C29.6162 17.0522 29.2815 16.8848 28.8386 16.8848C28.2087 16.8848 27.687 17.1801 27.2835 17.7805C26.9488 18.2726 26.7815 18.814 26.7815 19.4045C26.7815 19.8868 26.9193 20.2707 27.1949 20.5561C27.4705 20.8415 27.815 20.9892 28.2382 20.9892C28.6319 20.9892 28.9665 20.8415 29.2717 20.5561C29.311 20.6939 29.3799 20.8022 29.4882 20.8809C29.5965 20.9498 29.7539 20.9892 29.9606 20.9892C30.7382 20.9892 31.378 20.6644 31.8799 20.0049C32.2736 19.4833 32.4705 18.9025 32.4705 18.2529C32.4705 17.7116 32.3425 17.2096 32.0768 16.7569C31.811 16.3041 31.437 15.9498 30.9449 15.7037C30.4528 15.4577 29.8819 15.3297 29.2421 15.3297C28.4941 15.3297 27.8248 15.4872 27.2441 15.7923C26.6634 16.0974 26.2008 16.56 25.8661 17.1703C25.5315 17.7805 25.3642 18.4399 25.3642 19.1585C25.3642 19.8081 25.5118 20.4085 25.8071 20.9498C26.1024 21.501 26.5551 21.9144 27.1654 22.1998C27.7756 22.4852 28.4941 22.623 29.3307 22.623C30.1969 22.6033 30.9252 22.4459 31.5256 22.1112ZM29.498 19.2569C29.3996 19.5522 29.2815 19.7785 29.1536 19.936C29.065 20.0443 28.9665 20.123 28.8681 20.1722C28.7402 20.2411 28.6024 20.2805 28.4646 20.2805C28.2677 20.2805 28.1102 20.2018 27.9823 20.0541C27.8543 19.9065 27.7854 19.6703 27.7854 19.3455C27.7854 19.1092 27.8347 18.8336 27.9232 18.5187C28.0217 18.2037 28.1595 17.9675 28.3366 17.8002C28.5236 17.6329 28.7205 17.5443 28.937 17.5443C29.1437 17.5443 29.311 17.623 29.439 17.7707C29.5669 17.9281 29.6358 18.1447 29.6358 18.4301C29.6457 18.686 29.5965 18.9616 29.498 19.2569Z" fill="#011D58"/>
</svg>
