<svg width="50" height="50" viewBox="0 0 50 50" fill="none" xmlns="http://www.w3.org/2000/svg">
<path d="M25 1.5C15.8973 1.5 8.5 8.89698 8.5 17.9988C8.5 21.0786 9.35268 24.076 10.9751 26.6608L23.8815 47.7806C24.1017 48.1381 24.4317 48.3582 24.8168 48.4132C25.3391 48.4956 25.9168 48.2757 26.2193 47.7532L39.1626 26.4407C40.7024 23.911 41.5 20.9687 41.5 17.9988C41.5 8.89698 34.1027 1.5 25 1.5ZM25 26.2483C20.3802 26.2483 16.75 22.5085 16.75 17.9988C16.75 13.4616 20.4624 9.74942 25 9.74942C29.5376 9.74942 33.25 13.4616 33.25 17.9988C33.25 22.481 29.6749 26.2483 25 26.2483Z" fill="#011D58"/>
<path d="M25 1.5V9.74942C29.5376 9.74942 33.25 13.4616 33.25 17.9988C33.25 22.481 29.6749 26.2483 25 26.2483V48.4292C25.4692 48.4401 25.9518 48.2152 26.2192 47.7532L39.1625 26.4407C40.7024 23.911 41.5 20.9687 41.5 17.9988C41.5 8.89698 34.1027 1.5 25 1.5Z" fill="#011D58"/>
</svg>
