<svg width="50" height="50" viewBox="0 0 50 50" fill="none" xmlns="http://www.w3.org/2000/svg">
<path d="M41 31.02C38.6847 31.0245 36.3836 30.6585 34.184 29.936C33.1556 29.5764 32.0125 29.8184 31.218 30.564L26.902 33.8201C22.267 31.4929 18.5061 27.7328 16.1781 23.098L19.348 18.886C20.1484 18.0851 20.4346 16.9045 20.0901 15.826C19.3648 13.6234 18.9969 11.3189 19 9C19 7.34316 17.6569 6 16 6H9C7.34316 6 6 7.34316 6 9C6.02203 28.3209 21.6791 43.978 41 44C42.6568 44 44 42.6568 44 41V34.02C44 32.3632 42.6568 31.02 41 31.02Z" fill="#011D58"/>
<path d="M43.0001 22C42.4478 22 42.0001 21.5523 42.0001 21C41.9913 13.8239 36.1761 8.00878 29 7.99997C28.4477 7.99997 28 7.55222 28 6.99994C28 6.44766 28.4477 6 29 6C37.2807 6.00881 43.9912 12.7193 44 21C44 21.5523 43.5524 22 43.0001 22Z" fill="#011D58"/>
<path d="M35 22.0001C34.4478 22.0001 34 21.5523 34 21C34 18.2386 31.7614 16.0001 29 16.0001C28.4477 16.0001 28 15.5523 28 15C28 14.4478 28.4477 14 29 14C32.8661 14 36.0001 17.1341 36.0001 21C36.0001 21.5523 35.5523 22.0001 35 22.0001Z" fill="#011D58"/>
</svg>
