<svg width="35" height="39" viewBox="0 0 35 39" fill="none" xmlns="http://www.w3.org/2000/svg">
<path d="M29.9804 1.25109C29.988 1.04512 30.0033 0.831517 30.0033 0.625545V0H4.99673V0.625545C4.99673 0.831517 5.01199 1.04512 5.01962 1.25109H0V1.87663C0 7.5218 4.21861 12.8771 9.82563 14.3494C11.2522 16.2489 12.9915 18.0416 15.0054 19.6894V25.0065H13.1288C11.4048 25.0065 10.0011 26.4102 10.0011 28.1343V28.7598H7.49891C6.46142 28.7598 5.62228 29.599 5.62228 30.6364V38.7533H29.3777V30.6288C29.3777 29.5913 28.5386 28.7522 27.5011 28.7522H24.9989V28.1266C24.9989 26.4026 23.5952 24.9989 21.8712 24.9989H19.9946V19.6818C21.1465 18.7435 22.1992 17.7517 23.1604 16.7295C23.8851 15.959 24.5565 15.1657 25.1744 14.3494C30.7738 12.8771 35 7.5218 35 1.87663V1.25109H29.9804ZM1.26635 2.50218H5.08827C5.40868 6.02659 6.61399 9.45183 8.62794 12.6253C4.53139 10.8936 1.53335 6.84285 1.26635 2.50218ZM24.9989 30.0033H27.5011C27.8444 30.0033 28.1266 30.2855 28.1266 30.6288V37.5022H6.87337V30.6288C6.87337 30.2855 7.15562 30.0033 7.49891 30.0033H10.0011H24.9989ZM21.8788 26.25C22.9163 26.25 23.7554 27.0891 23.7554 28.1266V28.7522H11.2522V28.1266C11.2522 27.0891 12.0913 26.25 13.1288 26.25H16.2565V20.3989L17.5 21.4364L18.7511 20.3989V26.25H21.8788ZM22.306 15.8293L17.5 19.8191L12.694 15.8293C8.67371 11.5116 6.42328 6.46905 6.25545 1.25872H28.7442C28.5744 6.47393 26.3243 11.5137 22.306 15.8293ZM26.3644 12.6253C28.3784 9.45183 29.5913 6.02659 29.9041 2.50218H33.726C33.4667 6.84285 30.4686 10.8936 26.3644 12.6253Z" fill="#011D58"/>
</svg>
