<svg width="35" height="35" viewBox="0 0 35 35" fill="none" xmlns="http://www.w3.org/2000/svg">
<rect width="35" height="35" fill="url(#paint0_linear)"/>
<path d="M33.8287 0.589069H28.2136V0.0241089H27.0837V0.589069H23.1358V0.0241089H22.0059V0.589069H18.0581V0.0241089H16.9281V0.589069H12.9803V0.0241089H11.8504V0.589069H7.90256V0.0241089H6.77264V0.589069H1.17126L0 29.905H1.15059V34.9759H33.8494V29.905H35L33.8287 0.589069ZM2.25984 1.71899H6.78642V3.40698H7.91634V1.71899H11.8642V3.40698H12.9941V1.71899H16.9419V3.40698H18.0718V1.71899H22.0197V3.40698H23.1496V1.71899H27.0974V3.40698H28.2274V1.71899H32.7608L32.9193 5.66683H2.10138L2.25984 1.71899ZM32.7264 33.8528H32.7195H2.28051V29.905H32.7264V33.8528ZM1.17126 28.782L2.05315 6.78986H32.9468L33.8287 28.782H1.17126Z" fill="#011D58"/>
<path d="M11.8643 13.5556H15.8121V9.60779H11.8643V13.5556ZM12.9873 10.7377H14.6753V12.4257H12.9873V10.7377Z" fill="#011D58"/>
<path d="M19.188 13.5556H23.1358V9.60779H19.188V13.5556ZM20.3179 10.7377H22.0059V12.4257H20.3179V10.7377Z" fill="#011D58"/>
<path d="M26.5188 13.5556H30.4666V9.60779H26.5188V13.5556ZM27.6487 10.7446H29.3367V12.4326H27.6487V10.7446Z" fill="#011D58"/>
<path d="M4.53345 19.7564H8.48128V15.8086H4.53345V19.7564ZM5.66337 16.9385H7.35136V18.6265H5.66337V16.9385Z" fill="#011D58"/>
<path d="M11.8643 19.7564H15.8121V15.8086H11.8643V19.7564ZM12.9873 16.9385H14.6753V18.6265H12.9873V16.9385Z" fill="#011D58"/>
<path d="M19.188 19.7564H23.1358V15.8086H19.188V19.7564ZM20.3179 16.9385H22.0059V18.6265H20.3179V16.9385Z" fill="#011D58"/>
<path d="M26.5188 19.7564H30.4666V15.8086H26.5188V19.7564ZM27.6487 16.9385H29.3367V18.6265H27.6487V16.9385Z" fill="#011D58"/>
<path d="M4.53345 25.9572H8.48128V22.0094H4.53345V25.9572ZM5.66337 23.1393H7.35136V24.8273H5.66337V23.1393Z" fill="#011D58"/>
<path d="M11.8643 25.9572H15.8121V22.0094H11.8643V25.9572ZM12.9873 23.1393H14.6753V24.8273H12.9873V23.1393Z" fill="#011D58"/>
<path d="M19.188 25.9572H23.1358V22.0094H19.188V25.9572ZM20.3179 23.1393H22.0059V24.8273H20.3179V23.1393Z" fill="#011D58"/>
<defs>
<linearGradient id="paint0_linear" x1="17.5" y1="0" x2="17.5" y2="35" gradientUnits="userSpaceOnUse">
<stop stop-color="white"/>
<stop offset="1" stop-color="white" stop-opacity="0"/>
</linearGradient>
</defs>
</svg>
