<svg width="35" height="35" viewBox="0 0 35 35" fill="none" xmlns="http://www.w3.org/2000/svg">
<path d="M7.90244 0V4.51279H3.38965V26.7598L11.6229 35H27.0973V30.4872H31.6101V0H7.90244ZM11.2922 33.0709L5.31878 27.0974H11.2922V33.0709ZM25.9674 33.8701H12.4221V25.9675H4.51957V5.64272H25.9674V33.8701ZM30.4802 29.3573H27.0904V4.51279H9.03237V1.12992H30.4802V29.3573Z" fill="#011D58"/>
<path d="M24.2449 13.5453H23.115V14.6752H24.2449V13.5453Z" fill="#011D58"/>
<path d="M21.9852 13.5453H20.8552V14.6752H21.9852V13.5453Z" fill="#011D58"/>
<path d="M19.7322 13.5453H18.6023V14.6752H19.7322V13.5453Z" fill="#011D58"/>
<path d="M16.3423 7.90259H6.74487V20.3248H16.3423V7.90259ZM15.2124 19.1949H7.87479V9.03251H15.2124V19.1949Z" fill="#011D58"/>
<path d="M23.6799 22.5778H6.74487V23.7077H23.6799V22.5778Z" fill="#011D58"/>
<path d="M23.6799 27.0974H14.6475V28.2273H23.6799V27.0974Z" fill="#011D58"/>
</svg>
