<svg width="35" height="35" viewBox="0 0 35 35" fill="none" xmlns="http://www.w3.org/2000/svg">
<path d="M32.1752 7.90254H24.8376V5.07773C24.8376 3.52065 23.5699 2.25293 22.0128 2.25293H12.9872C11.4301 2.25293 10.1624 3.52065 10.1624 5.07773V7.90254H2.8248C1.26772 7.90254 0 9.17025 0 10.7273V29.9222C0 31.4793 1.26772 32.747 2.8248 32.747H32.1752C33.7323 32.747 35 31.4793 35 29.9222V10.7273C35 9.17025 33.7323 7.90254 32.1752 7.90254ZM11.2923 5.07773C11.2923 4.14072 12.0502 3.38285 12.9872 3.38285H22.0197C22.9567 3.38285 23.7146 4.14072 23.7146 5.07773V7.90254H11.2923V5.07773ZM33.8563 29.9153C33.8701 30.8523 33.1122 31.6102 32.1752 31.6102H2.8248C1.8878 31.6102 1.12992 30.8523 1.12992 29.9153V15.8051H5.64272V18.0649H10.1555V15.8051H24.8307V18.0649H29.3435V15.8051H33.8563V29.9153ZM6.77264 16.935V13.5453H9.03248V16.935H6.77264ZM25.9675 16.935V13.5453H28.2274V16.935H25.9675ZM33.8701 14.6752H29.3573V12.4153H24.8445V14.6752H10.1693V12.4153H5.64272V14.6752H1.12992V10.7204C1.12992 9.79033 1.8878 9.03246 2.8248 9.03246H10.1624H24.8376H32.1752C33.1122 9.03246 33.8701 9.79033 33.8701 10.7273V14.6752Z" fill="#011D58"/>
<path d="M18.065 19.1948H16.9351V20.3247H18.065V19.1948Z" fill="#011D58"/>
<path d="M15.8052 19.1948H14.6753V20.3247H15.8052V19.1948Z" fill="#011D58"/>
<path d="M20.3247 19.1948H19.1948V20.3247H20.3247V19.1948Z" fill="#011D58"/>
</svg>
