<svg width="35" height="35" viewBox="0 0 35 35" fill="none" xmlns="http://www.w3.org/2000/svg">
<path d="M29.7372 34.2216C29.0621 32.5339 29.0621 30.681 29.7372 28.9933L29.7785 28.89V1.69455C29.7785 0.757725 29.0208 0 28.084 0H16.2359H8.32801H6.64035C5.70353 0 4.9458 0.757725 4.9458 1.69455V31.6109C4.9458 33.4777 6.46814 35 8.3349 35H30.054L29.7372 34.2216ZM9.45771 1.1297H15.1062V12.1994L12.282 11.2557L9.45771 12.1994V1.1297ZM28.1184 32.1689C28.1597 32.7406 28.2562 33.3055 28.4215 33.8634H8.32801C7.08121 33.8634 6.06861 32.8508 6.06861 31.604C6.06861 30.3572 7.08121 29.3446 8.32801 29.3446H28.4215C28.2631 29.9026 28.1597 30.4674 28.1184 31.0392H8.32801V32.1689H28.1184ZM28.6626 28.2218H8.34179C7.47385 28.2218 6.68168 28.5525 6.08239 29.0829V1.69455H6.0755C6.0755 1.38457 6.33037 1.1297 6.64035 1.1297H8.3349V13.763L12.2888 12.4474L16.2428 13.763V1.1297H28.0977C28.4077 1.1297 28.6626 1.38457 28.6626 1.69455V28.2218Z" fill="#011D58"/>
<path d="M12.8467 3.3891H11.717V4.5188H12.8467V3.3891Z" fill="#011D58"/>
<path d="M12.8467 5.6416H11.717V6.7713H12.8467V5.6416Z" fill="#011D58"/>
<path d="M12.8467 7.901H11.717V9.0307H12.8467V7.901Z" fill="#011D58"/>
<path d="M22.4423 16.9317H12.2819C11.3451 16.9317 10.5874 17.6894 10.5874 18.6262V23.1381C10.5874 24.075 11.3451 24.8327 12.2819 24.8327H22.4423C23.3792 24.8327 24.1369 24.075 24.1369 23.1381V18.6262C24.1369 17.6894 23.3792 16.9317 22.4423 16.9317ZM23.0072 23.1381C23.0072 23.4481 22.7523 23.703 22.4423 23.703H12.2819C11.972 23.703 11.7171 23.4481 11.7171 23.1381V18.6262C11.7171 18.3163 11.972 18.0614 12.2819 18.0614H22.4423C22.7523 18.0614 23.0072 18.3163 23.0072 18.6262V23.1381Z" fill="#011D58"/>
</svg>
