<svg width="35" height="35" viewBox="0 0 35 35" fill="none" xmlns="http://www.w3.org/2000/svg">
<path d="M0 27.2021H10.1572L8.40555 32.5H26.5944L24.8428 27.2021H35V2.5H0V27.2021ZM10.8407 30.734L12.0049 27.2021H22.9951L24.1593 30.734H10.8407ZM1.7516 4.26597H33.2591V20.149H1.7516V4.26597V4.26597ZM1.7516 21.9042H33.2591V25.4361H24.2554H10.7446H1.7516V21.9042Z" fill="#011D58"/>
<path d="M18.3812 22.7871H16.6296V24.5531H18.3812V22.7871Z" fill="#011D58"/>
<path d="M21.8844 22.7871H20.1328V24.5531H21.8844V22.7871Z" fill="#011D58"/>
<path d="M14.8781 22.7871H13.1265V24.5531H14.8781V22.7871Z" fill="#011D58"/>
<path d="M18.3812 13.9681H16.6296V17.5H18.3812V13.9681Z" fill="#011D58"/>
<path d="M22.7494 9.55316H20.9978V17.4893H22.7494V9.55316Z" fill="#011D58"/>
<path d="M27.1286 6.91498H25.377V17.5H27.1286V6.91498Z" fill="#011D58"/>
<path d="M14.0021 8.68091H12.2505V17.5H14.0021V8.68091Z" fill="#011D58"/>
<path d="M9.62318 12.2021H7.87158V17.5H9.62318V12.2021Z" fill="#011D58"/>
</svg>
